<?xml version="1.0" encoding="utf-8" standalone="no"?>
<!DOCTYPE svg PUBLIC "-//W3C//DTD SVG 1.1//EN"
  "http://www.w3.org/Graphics/SVG/1.1/DTD/svg11.dtd">
<!-- Created with matplotlib (https://matplotlib.org/) -->
<svg height="452pt" version="1.1" viewBox="0 0 566 452" width="566pt" xmlns="http://www.w3.org/2000/svg" xmlns:xlink="http://www.w3.org/1999/xlink">
 <metadata>
  <rdf:RDF xmlns:cc="http://creativecommons.org/ns#" xmlns:dc="http://purl.org/dc/elements/1.1/" xmlns:rdf="http://www.w3.org/1999/02/22-rdf-syntax-ns#">
   <cc:Work>
    <dc:type rdf:resource="http://purl.org/dc/dcmitype/StillImage"/>
    <dc:date>2020-09-25T23:24:44.018069</dc:date>
    <dc:format>image/svg+xml</dc:format>
    <dc:creator>
     <cc:Agent>
      <dc:title>Matplotlib v3.3.1, https://matplotlib.org/</dc:title>
     </cc:Agent>
    </dc:creator>
   </cc:Work>
  </rdf:RDF>
 </metadata>
 <defs>
  <style type="text/css">*{stroke-linecap:butt;stroke-linejoin:round;}</style>
 </defs>
 <g id="figure_1">
  <g id="patch_1">
   <path d="M 0 452 
L 566 452 
L 566 0 
L 0 0 
z
" style="fill:#ffffff;"/>
  </g>
  <g id="axes_1">
   <g id="patch_2">
    <path d="M 30.525 385.561562 
L 555.2 385.561562 
L 555.2 11.39509 
L 30.525 11.39509 
z
" style="fill:#ffffff;"/>
   </g>
   <g id="matplotlib.axis_1">
    <g id="xtick_1">
     <g id="text_1">
      <!-- Canadian wheat -->
      <g transform="translate(38.426756 441.2)rotate(-90)scale(0.06 -0.06)">
       <defs>
        <path d="M 64.40625 67.28125 
L 64.40625 56.890625 
Q 59.421875 61.53125 53.78125 63.8125 
Q 48.140625 66.109375 41.796875 66.109375 
Q 29.296875 66.109375 22.65625 58.46875 
Q 16.015625 50.828125 16.015625 36.375 
Q 16.015625 21.96875 22.65625 14.328125 
Q 29.296875 6.6875 41.796875 6.6875 
Q 48.140625 6.6875 53.78125 8.984375 
Q 59.421875 11.28125 64.40625 15.921875 
L 64.40625 5.609375 
Q 59.234375 2.09375 53.4375 0.328125 
Q 47.65625 -1.421875 41.21875 -1.421875 
Q 24.65625 -1.421875 15.125 8.703125 
Q 5.609375 18.84375 5.609375 36.375 
Q 5.609375 53.953125 15.125 64.078125 
Q 24.65625 74.21875 41.21875 74.21875 
Q 47.75 74.21875 53.53125 72.484375 
Q 59.328125 70.75 64.40625 67.28125 
z
" id="DejaVuSans-67"/>
        <path d="M 34.28125 27.484375 
Q 23.390625 27.484375 19.1875 25 
Q 14.984375 22.515625 14.984375 16.5 
Q 14.984375 11.71875 18.140625 8.90625 
Q 21.296875 6.109375 26.703125 6.109375 
Q 34.1875 6.109375 38.703125 11.40625 
Q 43.21875 16.703125 43.21875 25.484375 
L 43.21875 27.484375 
z
M 52.203125 31.203125 
L 52.203125 0 
L 43.21875 0 
L 43.21875 8.296875 
Q 40.140625 3.328125 35.546875 0.953125 
Q 30.953125 -1.421875 24.3125 -1.421875 
Q 15.921875 -1.421875 10.953125 3.296875 
Q 6 8.015625 6 15.921875 
Q 6 25.140625 12.171875 29.828125 
Q 18.359375 34.515625 30.609375 34.515625 
L 43.21875 34.515625 
L 43.21875 35.40625 
Q 43.21875 41.609375 39.140625 45 
Q 35.0625 48.390625 27.6875 48.390625 
Q 23 48.390625 18.546875 47.265625 
Q 14.109375 46.140625 10.015625 43.890625 
L 10.015625 52.203125 
Q 14.9375 54.109375 19.578125 55.046875 
Q 24.21875 56 28.609375 56 
Q 40.484375 56 46.34375 49.84375 
Q 52.203125 43.703125 52.203125 31.203125 
z
" id="DejaVuSans-97"/>
        <path d="M 54.890625 33.015625 
L 54.890625 0 
L 45.90625 0 
L 45.90625 32.71875 
Q 45.90625 40.484375 42.875 44.328125 
Q 39.84375 48.1875 33.796875 48.1875 
Q 26.515625 48.1875 22.3125 43.546875 
Q 18.109375 38.921875 18.109375 30.90625 
L 18.109375 0 
L 9.078125 0 
L 9.078125 54.6875 
L 18.109375 54.6875 
L 18.109375 46.1875 
Q 21.34375 51.125 25.703125 53.5625 
Q 30.078125 56 35.796875 56 
Q 45.21875 56 50.046875 50.171875 
Q 54.890625 44.34375 54.890625 33.015625 
z
" id="DejaVuSans-110"/>
        <path d="M 45.40625 46.390625 
L 45.40625 75.984375 
L 54.390625 75.984375 
L 54.390625 0 
L 45.40625 0 
L 45.40625 8.203125 
Q 42.578125 3.328125 38.25 0.953125 
Q 33.9375 -1.421875 27.875 -1.421875 
Q 17.96875 -1.421875 11.734375 6.484375 
Q 5.515625 14.40625 5.515625 27.296875 
Q 5.515625 40.1875 11.734375 48.09375 
Q 17.96875 56 27.875 56 
Q 33.9375 56 38.25 53.625 
Q 42.578125 51.265625 45.40625 46.390625 
z
M 14.796875 27.296875 
Q 14.796875 17.390625 18.875 11.75 
Q 22.953125 6.109375 30.078125 6.109375 
Q 37.203125 6.109375 41.296875 11.75 
Q 45.40625 17.390625 45.40625 27.296875 
Q 45.40625 37.203125 41.296875 42.84375 
Q 37.203125 48.484375 30.078125 48.484375 
Q 22.953125 48.484375 18.875 42.84375 
Q 14.796875 37.203125 14.796875 27.296875 
z
" id="DejaVuSans-100"/>
        <path d="M 9.421875 54.6875 
L 18.40625 54.6875 
L 18.40625 0 
L 9.421875 0 
z
M 9.421875 75.984375 
L 18.40625 75.984375 
L 18.40625 64.59375 
L 9.421875 64.59375 
z
" id="DejaVuSans-105"/>
        <path id="DejaVuSans-32"/>
        <path d="M 4.203125 54.6875 
L 13.1875 54.6875 
L 24.421875 12.015625 
L 35.59375 54.6875 
L 46.1875 54.6875 
L 57.421875 12.015625 
L 68.609375 54.6875 
L 77.59375 54.6875 
L 63.28125 0 
L 52.6875 0 
L 40.921875 44.828125 
L 29.109375 0 
L 18.5 0 
z
" id="DejaVuSans-119"/>
        <path d="M 54.890625 33.015625 
L 54.890625 0 
L 45.90625 0 
L 45.90625 32.71875 
Q 45.90625 40.484375 42.875 44.328125 
Q 39.84375 48.1875 33.796875 48.1875 
Q 26.515625 48.1875 22.3125 43.546875 
Q 18.109375 38.921875 18.109375 30.90625 
L 18.109375 0 
L 9.078125 0 
L 9.078125 75.984375 
L 18.109375 75.984375 
L 18.109375 46.1875 
Q 21.34375 51.125 25.703125 53.5625 
Q 30.078125 56 35.796875 56 
Q 45.21875 56 50.046875 50.171875 
Q 54.890625 44.34375 54.890625 33.015625 
z
" id="DejaVuSans-104"/>
        <path d="M 56.203125 29.59375 
L 56.203125 25.203125 
L 14.890625 25.203125 
Q 15.484375 15.921875 20.484375 11.0625 
Q 25.484375 6.203125 34.421875 6.203125 
Q 39.59375 6.203125 44.453125 7.46875 
Q 49.3125 8.734375 54.109375 11.28125 
L 54.109375 2.78125 
Q 49.265625 0.734375 44.1875 -0.34375 
Q 39.109375 -1.421875 33.890625 -1.421875 
Q 20.796875 -1.421875 13.15625 6.1875 
Q 5.515625 13.8125 5.515625 26.8125 
Q 5.515625 40.234375 12.765625 48.109375 
Q 20.015625 56 32.328125 56 
Q 43.359375 56 49.78125 48.890625 
Q 56.203125 41.796875 56.203125 29.59375 
z
M 47.21875 32.234375 
Q 47.125 39.59375 43.09375 43.984375 
Q 39.0625 48.390625 32.421875 48.390625 
Q 24.90625 48.390625 20.390625 44.140625 
Q 15.875 39.890625 15.1875 32.171875 
z
" id="DejaVuSans-101"/>
        <path d="M 18.3125 70.21875 
L 18.3125 54.6875 
L 36.8125 54.6875 
L 36.8125 47.703125 
L 18.3125 47.703125 
L 18.3125 18.015625 
Q 18.3125 11.328125 20.140625 9.421875 
Q 21.96875 7.515625 27.59375 7.515625 
L 36.8125 7.515625 
L 36.8125 0 
L 27.59375 0 
Q 17.1875 0 13.234375 3.875 
Q 9.28125 7.765625 9.28125 18.015625 
L 9.28125 47.703125 
L 2.6875 47.703125 
L 2.6875 54.6875 
L 9.28125 54.6875 
L 9.28125 70.21875 
z
" id="DejaVuSans-116"/>
       </defs>
       <use xlink:href="#DejaVuSans-67"/>
       <use x="69.824219" xlink:href="#DejaVuSans-97"/>
       <use x="131.103516" xlink:href="#DejaVuSans-110"/>
       <use x="194.482422" xlink:href="#DejaVuSans-97"/>
       <use x="255.761719" xlink:href="#DejaVuSans-100"/>
       <use x="319.238281" xlink:href="#DejaVuSans-105"/>
       <use x="347.021484" xlink:href="#DejaVuSans-97"/>
       <use x="408.300781" xlink:href="#DejaVuSans-110"/>
       <use x="471.679688" xlink:href="#DejaVuSans-32"/>
       <use x="503.466797" xlink:href="#DejaVuSans-119"/>
       <use x="585.253906" xlink:href="#DejaVuSans-104"/>
       <use x="648.632812" xlink:href="#DejaVuSans-101"/>
       <use x="710.15625" xlink:href="#DejaVuSans-97"/>
       <use x="771.435547" xlink:href="#DejaVuSans-116"/>
      </g>
     </g>
    </g>
    <g id="xtick_2">
     <g id="text_2">
      <!-- Canadian wheat -->
      <g transform="translate(50.919018 441.2)rotate(-90)scale(0.06 -0.06)">
       <use xlink:href="#DejaVuSans-67"/>
       <use x="69.824219" xlink:href="#DejaVuSans-97"/>
       <use x="131.103516" xlink:href="#DejaVuSans-110"/>
       <use x="194.482422" xlink:href="#DejaVuSans-97"/>
       <use x="255.761719" xlink:href="#DejaVuSans-100"/>
       <use x="319.238281" xlink:href="#DejaVuSans-105"/>
       <use x="347.021484" xlink:href="#DejaVuSans-97"/>
       <use x="408.300781" xlink:href="#DejaVuSans-110"/>
       <use x="471.679688" xlink:href="#DejaVuSans-32"/>
       <use x="503.466797" xlink:href="#DejaVuSans-119"/>
       <use x="585.253906" xlink:href="#DejaVuSans-104"/>
       <use x="648.632812" xlink:href="#DejaVuSans-101"/>
       <use x="710.15625" xlink:href="#DejaVuSans-97"/>
       <use x="771.435547" xlink:href="#DejaVuSans-116"/>
      </g>
     </g>
    </g>
    <g id="xtick_3">
     <g id="text_3">
      <!-- Canadian wheat -->
      <g transform="translate(63.41128 441.2)rotate(-90)scale(0.06 -0.06)">
       <use xlink:href="#DejaVuSans-67"/>
       <use x="69.824219" xlink:href="#DejaVuSans-97"/>
       <use x="131.103516" xlink:href="#DejaVuSans-110"/>
       <use x="194.482422" xlink:href="#DejaVuSans-97"/>
       <use x="255.761719" xlink:href="#DejaVuSans-100"/>
       <use x="319.238281" xlink:href="#DejaVuSans-105"/>
       <use x="347.021484" xlink:href="#DejaVuSans-97"/>
       <use x="408.300781" xlink:href="#DejaVuSans-110"/>
       <use x="471.679688" xlink:href="#DejaVuSans-32"/>
       <use x="503.466797" xlink:href="#DejaVuSans-119"/>
       <use x="585.253906" xlink:href="#DejaVuSans-104"/>
       <use x="648.632812" xlink:href="#DejaVuSans-101"/>
       <use x="710.15625" xlink:href="#DejaVuSans-97"/>
       <use x="771.435547" xlink:href="#DejaVuSans-116"/>
      </g>
     </g>
    </g>
    <g id="xtick_4">
     <g id="text_4">
      <!-- Canadian wheat -->
      <g transform="translate(75.903542 441.2)rotate(-90)scale(0.06 -0.06)">
       <use xlink:href="#DejaVuSans-67"/>
       <use x="69.824219" xlink:href="#DejaVuSans-97"/>
       <use x="131.103516" xlink:href="#DejaVuSans-110"/>
       <use x="194.482422" xlink:href="#DejaVuSans-97"/>
       <use x="255.761719" xlink:href="#DejaVuSans-100"/>
       <use x="319.238281" xlink:href="#DejaVuSans-105"/>
       <use x="347.021484" xlink:href="#DejaVuSans-97"/>
       <use x="408.300781" xlink:href="#DejaVuSans-110"/>
       <use x="471.679688" xlink:href="#DejaVuSans-32"/>
       <use x="503.466797" xlink:href="#DejaVuSans-119"/>
       <use x="585.253906" xlink:href="#DejaVuSans-104"/>
       <use x="648.632812" xlink:href="#DejaVuSans-101"/>
       <use x="710.15625" xlink:href="#DejaVuSans-97"/>
       <use x="771.435547" xlink:href="#DejaVuSans-116"/>
      </g>
     </g>
    </g>
    <g id="xtick_5">
     <g id="text_5">
      <!-- Canadian wheat -->
      <g transform="translate(88.395804 441.2)rotate(-90)scale(0.06 -0.06)">
       <use xlink:href="#DejaVuSans-67"/>
       <use x="69.824219" xlink:href="#DejaVuSans-97"/>
       <use x="131.103516" xlink:href="#DejaVuSans-110"/>
       <use x="194.482422" xlink:href="#DejaVuSans-97"/>
       <use x="255.761719" xlink:href="#DejaVuSans-100"/>
       <use x="319.238281" xlink:href="#DejaVuSans-105"/>
       <use x="347.021484" xlink:href="#DejaVuSans-97"/>
       <use x="408.300781" xlink:href="#DejaVuSans-110"/>
       <use x="471.679688" xlink:href="#DejaVuSans-32"/>
       <use x="503.466797" xlink:href="#DejaVuSans-119"/>
       <use x="585.253906" xlink:href="#DejaVuSans-104"/>
       <use x="648.632812" xlink:href="#DejaVuSans-101"/>
       <use x="710.15625" xlink:href="#DejaVuSans-97"/>
       <use x="771.435547" xlink:href="#DejaVuSans-116"/>
      </g>
     </g>
    </g>
    <g id="xtick_6">
     <g id="text_6">
      <!-- Canadian wheat -->
      <g transform="translate(100.888065 441.2)rotate(-90)scale(0.06 -0.06)">
       <use xlink:href="#DejaVuSans-67"/>
       <use x="69.824219" xlink:href="#DejaVuSans-97"/>
       <use x="131.103516" xlink:href="#DejaVuSans-110"/>
       <use x="194.482422" xlink:href="#DejaVuSans-97"/>
       <use x="255.761719" xlink:href="#DejaVuSans-100"/>
       <use x="319.238281" xlink:href="#DejaVuSans-105"/>
       <use x="347.021484" xlink:href="#DejaVuSans-97"/>
       <use x="408.300781" xlink:href="#DejaVuSans-110"/>
       <use x="471.679688" xlink:href="#DejaVuSans-32"/>
       <use x="503.466797" xlink:href="#DejaVuSans-119"/>
       <use x="585.253906" xlink:href="#DejaVuSans-104"/>
       <use x="648.632812" xlink:href="#DejaVuSans-101"/>
       <use x="710.15625" xlink:href="#DejaVuSans-97"/>
       <use x="771.435547" xlink:href="#DejaVuSans-116"/>
      </g>
     </g>
    </g>
    <g id="xtick_7">
     <g id="text_7">
      <!-- Canadian wheat -->
      <g transform="translate(113.380327 441.2)rotate(-90)scale(0.06 -0.06)">
       <use xlink:href="#DejaVuSans-67"/>
       <use x="69.824219" xlink:href="#DejaVuSans-97"/>
       <use x="131.103516" xlink:href="#DejaVuSans-110"/>
       <use x="194.482422" xlink:href="#DejaVuSans-97"/>
       <use x="255.761719" xlink:href="#DejaVuSans-100"/>
       <use x="319.238281" xlink:href="#DejaVuSans-105"/>
       <use x="347.021484" xlink:href="#DejaVuSans-97"/>
       <use x="408.300781" xlink:href="#DejaVuSans-110"/>
       <use x="471.679688" xlink:href="#DejaVuSans-32"/>
       <use x="503.466797" xlink:href="#DejaVuSans-119"/>
       <use x="585.253906" xlink:href="#DejaVuSans-104"/>
       <use x="648.632812" xlink:href="#DejaVuSans-101"/>
       <use x="710.15625" xlink:href="#DejaVuSans-97"/>
       <use x="771.435547" xlink:href="#DejaVuSans-116"/>
      </g>
     </g>
    </g>
    <g id="xtick_8">
     <g id="text_8">
      <!-- Canadian wheat -->
      <g transform="translate(125.872589 441.2)rotate(-90)scale(0.06 -0.06)">
       <use xlink:href="#DejaVuSans-67"/>
       <use x="69.824219" xlink:href="#DejaVuSans-97"/>
       <use x="131.103516" xlink:href="#DejaVuSans-110"/>
       <use x="194.482422" xlink:href="#DejaVuSans-97"/>
       <use x="255.761719" xlink:href="#DejaVuSans-100"/>
       <use x="319.238281" xlink:href="#DejaVuSans-105"/>
       <use x="347.021484" xlink:href="#DejaVuSans-97"/>
       <use x="408.300781" xlink:href="#DejaVuSans-110"/>
       <use x="471.679688" xlink:href="#DejaVuSans-32"/>
       <use x="503.466797" xlink:href="#DejaVuSans-119"/>
       <use x="585.253906" xlink:href="#DejaVuSans-104"/>
       <use x="648.632812" xlink:href="#DejaVuSans-101"/>
       <use x="710.15625" xlink:href="#DejaVuSans-97"/>
       <use x="771.435547" xlink:href="#DejaVuSans-116"/>
      </g>
     </g>
    </g>
    <g id="xtick_9">
     <g id="text_9">
      <!-- Canadian wheat -->
      <g transform="translate(138.364851 441.2)rotate(-90)scale(0.06 -0.06)">
       <use xlink:href="#DejaVuSans-67"/>
       <use x="69.824219" xlink:href="#DejaVuSans-97"/>
       <use x="131.103516" xlink:href="#DejaVuSans-110"/>
       <use x="194.482422" xlink:href="#DejaVuSans-97"/>
       <use x="255.761719" xlink:href="#DejaVuSans-100"/>
       <use x="319.238281" xlink:href="#DejaVuSans-105"/>
       <use x="347.021484" xlink:href="#DejaVuSans-97"/>
       <use x="408.300781" xlink:href="#DejaVuSans-110"/>
       <use x="471.679688" xlink:href="#DejaVuSans-32"/>
       <use x="503.466797" xlink:href="#DejaVuSans-119"/>
       <use x="585.253906" xlink:href="#DejaVuSans-104"/>
       <use x="648.632812" xlink:href="#DejaVuSans-101"/>
       <use x="710.15625" xlink:href="#DejaVuSans-97"/>
       <use x="771.435547" xlink:href="#DejaVuSans-116"/>
      </g>
     </g>
    </g>
    <g id="xtick_10">
     <g id="text_10">
      <!-- Kama wheat -->
      <g transform="translate(150.857113 429.926562)rotate(-90)scale(0.06 -0.06)">
       <defs>
        <path d="M 9.8125 72.90625 
L 19.671875 72.90625 
L 19.671875 42.09375 
L 52.390625 72.90625 
L 65.09375 72.90625 
L 28.90625 38.921875 
L 67.671875 0 
L 54.6875 0 
L 19.671875 35.109375 
L 19.671875 0 
L 9.8125 0 
z
" id="DejaVuSans-75"/>
        <path d="M 52 44.1875 
Q 55.375 50.25 60.0625 53.125 
Q 64.75 56 71.09375 56 
Q 79.640625 56 84.28125 50.015625 
Q 88.921875 44.046875 88.921875 33.015625 
L 88.921875 0 
L 79.890625 0 
L 79.890625 32.71875 
Q 79.890625 40.578125 77.09375 44.375 
Q 74.3125 48.1875 68.609375 48.1875 
Q 61.625 48.1875 57.5625 43.546875 
Q 53.515625 38.921875 53.515625 30.90625 
L 53.515625 0 
L 44.484375 0 
L 44.484375 32.71875 
Q 44.484375 40.625 41.703125 44.40625 
Q 38.921875 48.1875 33.109375 48.1875 
Q 26.21875 48.1875 22.15625 43.53125 
Q 18.109375 38.875 18.109375 30.90625 
L 18.109375 0 
L 9.078125 0 
L 9.078125 54.6875 
L 18.109375 54.6875 
L 18.109375 46.1875 
Q 21.1875 51.21875 25.484375 53.609375 
Q 29.78125 56 35.6875 56 
Q 41.65625 56 45.828125 52.96875 
Q 50 49.953125 52 44.1875 
z
" id="DejaVuSans-109"/>
       </defs>
       <use xlink:href="#DejaVuSans-75"/>
       <use x="63.826172" xlink:href="#DejaVuSans-97"/>
       <use x="125.105469" xlink:href="#DejaVuSans-109"/>
       <use x="222.517578" xlink:href="#DejaVuSans-97"/>
       <use x="283.796875" xlink:href="#DejaVuSans-32"/>
       <use x="315.583984" xlink:href="#DejaVuSans-119"/>
       <use x="397.371094" xlink:href="#DejaVuSans-104"/>
       <use x="460.75" xlink:href="#DejaVuSans-101"/>
       <use x="522.273438" xlink:href="#DejaVuSans-97"/>
       <use x="583.552734" xlink:href="#DejaVuSans-116"/>
      </g>
     </g>
    </g>
    <g id="xtick_11">
     <g id="text_11">
      <!-- Kama wheat -->
      <g transform="translate(163.349375 429.926562)rotate(-90)scale(0.06 -0.06)">
       <use xlink:href="#DejaVuSans-75"/>
       <use x="63.826172" xlink:href="#DejaVuSans-97"/>
       <use x="125.105469" xlink:href="#DejaVuSans-109"/>
       <use x="222.517578" xlink:href="#DejaVuSans-97"/>
       <use x="283.796875" xlink:href="#DejaVuSans-32"/>
       <use x="315.583984" xlink:href="#DejaVuSans-119"/>
       <use x="397.371094" xlink:href="#DejaVuSans-104"/>
       <use x="460.75" xlink:href="#DejaVuSans-101"/>
       <use x="522.273438" xlink:href="#DejaVuSans-97"/>
       <use x="583.552734" xlink:href="#DejaVuSans-116"/>
      </g>
     </g>
    </g>
    <g id="xtick_12">
     <g id="text_12">
      <!-- Canadian wheat -->
      <g transform="translate(175.841637 441.2)rotate(-90)scale(0.06 -0.06)">
       <use xlink:href="#DejaVuSans-67"/>
       <use x="69.824219" xlink:href="#DejaVuSans-97"/>
       <use x="131.103516" xlink:href="#DejaVuSans-110"/>
       <use x="194.482422" xlink:href="#DejaVuSans-97"/>
       <use x="255.761719" xlink:href="#DejaVuSans-100"/>
       <use x="319.238281" xlink:href="#DejaVuSans-105"/>
       <use x="347.021484" xlink:href="#DejaVuSans-97"/>
       <use x="408.300781" xlink:href="#DejaVuSans-110"/>
       <use x="471.679688" xlink:href="#DejaVuSans-32"/>
       <use x="503.466797" xlink:href="#DejaVuSans-119"/>
       <use x="585.253906" xlink:href="#DejaVuSans-104"/>
       <use x="648.632812" xlink:href="#DejaVuSans-101"/>
       <use x="710.15625" xlink:href="#DejaVuSans-97"/>
       <use x="771.435547" xlink:href="#DejaVuSans-116"/>
      </g>
     </g>
    </g>
    <g id="xtick_13">
     <g id="text_13">
      <!-- Kama wheat -->
      <g transform="translate(188.333899 429.926562)rotate(-90)scale(0.06 -0.06)">
       <use xlink:href="#DejaVuSans-75"/>
       <use x="63.826172" xlink:href="#DejaVuSans-97"/>
       <use x="125.105469" xlink:href="#DejaVuSans-109"/>
       <use x="222.517578" xlink:href="#DejaVuSans-97"/>
       <use x="283.796875" xlink:href="#DejaVuSans-32"/>
       <use x="315.583984" xlink:href="#DejaVuSans-119"/>
       <use x="397.371094" xlink:href="#DejaVuSans-104"/>
       <use x="460.75" xlink:href="#DejaVuSans-101"/>
       <use x="522.273438" xlink:href="#DejaVuSans-97"/>
       <use x="583.552734" xlink:href="#DejaVuSans-116"/>
      </g>
     </g>
    </g>
    <g id="xtick_14">
     <g id="text_14">
      <!-- Canadian wheat -->
      <g transform="translate(200.826161 441.2)rotate(-90)scale(0.06 -0.06)">
       <use xlink:href="#DejaVuSans-67"/>
       <use x="69.824219" xlink:href="#DejaVuSans-97"/>
       <use x="131.103516" xlink:href="#DejaVuSans-110"/>
       <use x="194.482422" xlink:href="#DejaVuSans-97"/>
       <use x="255.761719" xlink:href="#DejaVuSans-100"/>
       <use x="319.238281" xlink:href="#DejaVuSans-105"/>
       <use x="347.021484" xlink:href="#DejaVuSans-97"/>
       <use x="408.300781" xlink:href="#DejaVuSans-110"/>
       <use x="471.679688" xlink:href="#DejaVuSans-32"/>
       <use x="503.466797" xlink:href="#DejaVuSans-119"/>
       <use x="585.253906" xlink:href="#DejaVuSans-104"/>
       <use x="648.632812" xlink:href="#DejaVuSans-101"/>
       <use x="710.15625" xlink:href="#DejaVuSans-97"/>
       <use x="771.435547" xlink:href="#DejaVuSans-116"/>
      </g>
     </g>
    </g>
    <g id="xtick_15">
     <g id="text_15">
      <!-- Canadian wheat -->
      <g transform="translate(213.318423 441.2)rotate(-90)scale(0.06 -0.06)">
       <use xlink:href="#DejaVuSans-67"/>
       <use x="69.824219" xlink:href="#DejaVuSans-97"/>
       <use x="131.103516" xlink:href="#DejaVuSans-110"/>
       <use x="194.482422" xlink:href="#DejaVuSans-97"/>
       <use x="255.761719" xlink:href="#DejaVuSans-100"/>
       <use x="319.238281" xlink:href="#DejaVuSans-105"/>
       <use x="347.021484" xlink:href="#DejaVuSans-97"/>
       <use x="408.300781" xlink:href="#DejaVuSans-110"/>
       <use x="471.679688" xlink:href="#DejaVuSans-32"/>
       <use x="503.466797" xlink:href="#DejaVuSans-119"/>
       <use x="585.253906" xlink:href="#DejaVuSans-104"/>
       <use x="648.632812" xlink:href="#DejaVuSans-101"/>
       <use x="710.15625" xlink:href="#DejaVuSans-97"/>
       <use x="771.435547" xlink:href="#DejaVuSans-116"/>
      </g>
     </g>
    </g>
    <g id="xtick_16">
     <g id="text_16">
      <!-- Canadian wheat -->
      <g transform="translate(225.810685 441.2)rotate(-90)scale(0.06 -0.06)">
       <use xlink:href="#DejaVuSans-67"/>
       <use x="69.824219" xlink:href="#DejaVuSans-97"/>
       <use x="131.103516" xlink:href="#DejaVuSans-110"/>
       <use x="194.482422" xlink:href="#DejaVuSans-97"/>
       <use x="255.761719" xlink:href="#DejaVuSans-100"/>
       <use x="319.238281" xlink:href="#DejaVuSans-105"/>
       <use x="347.021484" xlink:href="#DejaVuSans-97"/>
       <use x="408.300781" xlink:href="#DejaVuSans-110"/>
       <use x="471.679688" xlink:href="#DejaVuSans-32"/>
       <use x="503.466797" xlink:href="#DejaVuSans-119"/>
       <use x="585.253906" xlink:href="#DejaVuSans-104"/>
       <use x="648.632812" xlink:href="#DejaVuSans-101"/>
       <use x="710.15625" xlink:href="#DejaVuSans-97"/>
       <use x="771.435547" xlink:href="#DejaVuSans-116"/>
      </g>
     </g>
    </g>
    <g id="xtick_17">
     <g id="text_17">
      <!-- Canadian wheat -->
      <g transform="translate(238.302946 441.2)rotate(-90)scale(0.06 -0.06)">
       <use xlink:href="#DejaVuSans-67"/>
       <use x="69.824219" xlink:href="#DejaVuSans-97"/>
       <use x="131.103516" xlink:href="#DejaVuSans-110"/>
       <use x="194.482422" xlink:href="#DejaVuSans-97"/>
       <use x="255.761719" xlink:href="#DejaVuSans-100"/>
       <use x="319.238281" xlink:href="#DejaVuSans-105"/>
       <use x="347.021484" xlink:href="#DejaVuSans-97"/>
       <use x="408.300781" xlink:href="#DejaVuSans-110"/>
       <use x="471.679688" xlink:href="#DejaVuSans-32"/>
       <use x="503.466797" xlink:href="#DejaVuSans-119"/>
       <use x="585.253906" xlink:href="#DejaVuSans-104"/>
       <use x="648.632812" xlink:href="#DejaVuSans-101"/>
       <use x="710.15625" xlink:href="#DejaVuSans-97"/>
       <use x="771.435547" xlink:href="#DejaVuSans-116"/>
      </g>
     </g>
    </g>
    <g id="xtick_18">
     <g id="text_18">
      <!-- Rosa wheat -->
      <g transform="translate(250.795208 427.271563)rotate(-90)scale(0.06 -0.06)">
       <defs>
        <path d="M 44.390625 34.1875 
Q 47.5625 33.109375 50.5625 29.59375 
Q 53.5625 26.078125 56.59375 19.921875 
L 66.609375 0 
L 56 0 
L 46.6875 18.703125 
Q 43.0625 26.03125 39.671875 28.421875 
Q 36.28125 30.8125 30.421875 30.8125 
L 19.671875 30.8125 
L 19.671875 0 
L 9.8125 0 
L 9.8125 72.90625 
L 32.078125 72.90625 
Q 44.578125 72.90625 50.734375 67.671875 
Q 56.890625 62.453125 56.890625 51.90625 
Q 56.890625 45.015625 53.6875 40.46875 
Q 50.484375 35.9375 44.390625 34.1875 
z
M 19.671875 64.796875 
L 19.671875 38.921875 
L 32.078125 38.921875 
Q 39.203125 38.921875 42.84375 42.21875 
Q 46.484375 45.515625 46.484375 51.90625 
Q 46.484375 58.296875 42.84375 61.546875 
Q 39.203125 64.796875 32.078125 64.796875 
z
" id="DejaVuSans-82"/>
        <path d="M 30.609375 48.390625 
Q 23.390625 48.390625 19.1875 42.75 
Q 14.984375 37.109375 14.984375 27.296875 
Q 14.984375 17.484375 19.15625 11.84375 
Q 23.34375 6.203125 30.609375 6.203125 
Q 37.796875 6.203125 41.984375 11.859375 
Q 46.1875 17.53125 46.1875 27.296875 
Q 46.1875 37.015625 41.984375 42.703125 
Q 37.796875 48.390625 30.609375 48.390625 
z
M 30.609375 56 
Q 42.328125 56 49.015625 48.375 
Q 55.71875 40.765625 55.71875 27.296875 
Q 55.71875 13.875 49.015625 6.21875 
Q 42.328125 -1.421875 30.609375 -1.421875 
Q 18.84375 -1.421875 12.171875 6.21875 
Q 5.515625 13.875 5.515625 27.296875 
Q 5.515625 40.765625 12.171875 48.375 
Q 18.84375 56 30.609375 56 
z
" id="DejaVuSans-111"/>
        <path d="M 44.28125 53.078125 
L 44.28125 44.578125 
Q 40.484375 46.53125 36.375 47.5 
Q 32.28125 48.484375 27.875 48.484375 
Q 21.1875 48.484375 17.84375 46.4375 
Q 14.5 44.390625 14.5 40.28125 
Q 14.5 37.15625 16.890625 35.375 
Q 19.28125 33.59375 26.515625 31.984375 
L 29.59375 31.296875 
Q 39.15625 29.25 43.1875 25.515625 
Q 47.21875 21.78125 47.21875 15.09375 
Q 47.21875 7.46875 41.1875 3.015625 
Q 35.15625 -1.421875 24.609375 -1.421875 
Q 20.21875 -1.421875 15.453125 -0.5625 
Q 10.6875 0.296875 5.421875 2 
L 5.421875 11.28125 
Q 10.40625 8.6875 15.234375 7.390625 
Q 20.0625 6.109375 24.8125 6.109375 
Q 31.15625 6.109375 34.5625 8.28125 
Q 37.984375 10.453125 37.984375 14.40625 
Q 37.984375 18.0625 35.515625 20.015625 
Q 33.0625 21.96875 24.703125 23.78125 
L 21.578125 24.515625 
Q 13.234375 26.265625 9.515625 29.90625 
Q 5.8125 33.546875 5.8125 39.890625 
Q 5.8125 47.609375 11.28125 51.796875 
Q 16.75 56 26.8125 56 
Q 31.78125 56 36.171875 55.265625 
Q 40.578125 54.546875 44.28125 53.078125 
z
" id="DejaVuSans-115"/>
       </defs>
       <use xlink:href="#DejaVuSans-82"/>
       <use x="64.982422" xlink:href="#DejaVuSans-111"/>
       <use x="126.164062" xlink:href="#DejaVuSans-115"/>
       <use x="178.263672" xlink:href="#DejaVuSans-97"/>
       <use x="239.542969" xlink:href="#DejaVuSans-32"/>
       <use x="271.330078" xlink:href="#DejaVuSans-119"/>
       <use x="353.117188" xlink:href="#DejaVuSans-104"/>
       <use x="416.496094" xlink:href="#DejaVuSans-101"/>
       <use x="478.019531" xlink:href="#DejaVuSans-97"/>
       <use x="539.298828" xlink:href="#DejaVuSans-116"/>
      </g>
     </g>
    </g>
    <g id="xtick_19">
     <g id="text_19">
      <!-- Rosa wheat -->
      <g transform="translate(263.28747 427.271563)rotate(-90)scale(0.06 -0.06)">
       <use xlink:href="#DejaVuSans-82"/>
       <use x="64.982422" xlink:href="#DejaVuSans-111"/>
       <use x="126.164062" xlink:href="#DejaVuSans-115"/>
       <use x="178.263672" xlink:href="#DejaVuSans-97"/>
       <use x="239.542969" xlink:href="#DejaVuSans-32"/>
       <use x="271.330078" xlink:href="#DejaVuSans-119"/>
       <use x="353.117188" xlink:href="#DejaVuSans-104"/>
       <use x="416.496094" xlink:href="#DejaVuSans-101"/>
       <use x="478.019531" xlink:href="#DejaVuSans-97"/>
       <use x="539.298828" xlink:href="#DejaVuSans-116"/>
      </g>
     </g>
    </g>
    <g id="xtick_20">
     <g id="text_20">
      <!-- Rosa wheat -->
      <g transform="translate(275.779732 427.271563)rotate(-90)scale(0.06 -0.06)">
       <use xlink:href="#DejaVuSans-82"/>
       <use x="64.982422" xlink:href="#DejaVuSans-111"/>
       <use x="126.164062" xlink:href="#DejaVuSans-115"/>
       <use x="178.263672" xlink:href="#DejaVuSans-97"/>
       <use x="239.542969" xlink:href="#DejaVuSans-32"/>
       <use x="271.330078" xlink:href="#DejaVuSans-119"/>
       <use x="353.117188" xlink:href="#DejaVuSans-104"/>
       <use x="416.496094" xlink:href="#DejaVuSans-101"/>
       <use x="478.019531" xlink:href="#DejaVuSans-97"/>
       <use x="539.298828" xlink:href="#DejaVuSans-116"/>
      </g>
     </g>
    </g>
    <g id="xtick_21">
     <g id="text_21">
      <!-- Rosa wheat -->
      <g transform="translate(288.271994 427.271563)rotate(-90)scale(0.06 -0.06)">
       <use xlink:href="#DejaVuSans-82"/>
       <use x="64.982422" xlink:href="#DejaVuSans-111"/>
       <use x="126.164062" xlink:href="#DejaVuSans-115"/>
       <use x="178.263672" xlink:href="#DejaVuSans-97"/>
       <use x="239.542969" xlink:href="#DejaVuSans-32"/>
       <use x="271.330078" xlink:href="#DejaVuSans-119"/>
       <use x="353.117188" xlink:href="#DejaVuSans-104"/>
       <use x="416.496094" xlink:href="#DejaVuSans-101"/>
       <use x="478.019531" xlink:href="#DejaVuSans-97"/>
       <use x="539.298828" xlink:href="#DejaVuSans-116"/>
      </g>
     </g>
    </g>
    <g id="xtick_22">
     <g id="text_22">
      <!-- Rosa wheat -->
      <g transform="translate(300.764256 427.271563)rotate(-90)scale(0.06 -0.06)">
       <use xlink:href="#DejaVuSans-82"/>
       <use x="64.982422" xlink:href="#DejaVuSans-111"/>
       <use x="126.164062" xlink:href="#DejaVuSans-115"/>
       <use x="178.263672" xlink:href="#DejaVuSans-97"/>
       <use x="239.542969" xlink:href="#DejaVuSans-32"/>
       <use x="271.330078" xlink:href="#DejaVuSans-119"/>
       <use x="353.117188" xlink:href="#DejaVuSans-104"/>
       <use x="416.496094" xlink:href="#DejaVuSans-101"/>
       <use x="478.019531" xlink:href="#DejaVuSans-97"/>
       <use x="539.298828" xlink:href="#DejaVuSans-116"/>
      </g>
     </g>
    </g>
    <g id="xtick_23">
     <g id="text_23">
      <!-- Rosa wheat -->
      <g transform="translate(313.256518 427.271563)rotate(-90)scale(0.06 -0.06)">
       <use xlink:href="#DejaVuSans-82"/>
       <use x="64.982422" xlink:href="#DejaVuSans-111"/>
       <use x="126.164062" xlink:href="#DejaVuSans-115"/>
       <use x="178.263672" xlink:href="#DejaVuSans-97"/>
       <use x="239.542969" xlink:href="#DejaVuSans-32"/>
       <use x="271.330078" xlink:href="#DejaVuSans-119"/>
       <use x="353.117188" xlink:href="#DejaVuSans-104"/>
       <use x="416.496094" xlink:href="#DejaVuSans-101"/>
       <use x="478.019531" xlink:href="#DejaVuSans-97"/>
       <use x="539.298828" xlink:href="#DejaVuSans-116"/>
      </g>
     </g>
    </g>
    <g id="xtick_24">
     <g id="text_24">
      <!-- Rosa wheat -->
      <g transform="translate(325.74878 427.271563)rotate(-90)scale(0.06 -0.06)">
       <use xlink:href="#DejaVuSans-82"/>
       <use x="64.982422" xlink:href="#DejaVuSans-111"/>
       <use x="126.164062" xlink:href="#DejaVuSans-115"/>
       <use x="178.263672" xlink:href="#DejaVuSans-97"/>
       <use x="239.542969" xlink:href="#DejaVuSans-32"/>
       <use x="271.330078" xlink:href="#DejaVuSans-119"/>
       <use x="353.117188" xlink:href="#DejaVuSans-104"/>
       <use x="416.496094" xlink:href="#DejaVuSans-101"/>
       <use x="478.019531" xlink:href="#DejaVuSans-97"/>
       <use x="539.298828" xlink:href="#DejaVuSans-116"/>
      </g>
     </g>
    </g>
    <g id="xtick_25">
     <g id="text_25">
      <!-- Rosa wheat -->
      <g transform="translate(338.241042 427.271563)rotate(-90)scale(0.06 -0.06)">
       <use xlink:href="#DejaVuSans-82"/>
       <use x="64.982422" xlink:href="#DejaVuSans-111"/>
       <use x="126.164062" xlink:href="#DejaVuSans-115"/>
       <use x="178.263672" xlink:href="#DejaVuSans-97"/>
       <use x="239.542969" xlink:href="#DejaVuSans-32"/>
       <use x="271.330078" xlink:href="#DejaVuSans-119"/>
       <use x="353.117188" xlink:href="#DejaVuSans-104"/>
       <use x="416.496094" xlink:href="#DejaVuSans-101"/>
       <use x="478.019531" xlink:href="#DejaVuSans-97"/>
       <use x="539.298828" xlink:href="#DejaVuSans-116"/>
      </g>
     </g>
    </g>
    <g id="xtick_26">
     <g id="text_26">
      <!-- Rosa wheat -->
      <g transform="translate(350.733304 427.271563)rotate(-90)scale(0.06 -0.06)">
       <use xlink:href="#DejaVuSans-82"/>
       <use x="64.982422" xlink:href="#DejaVuSans-111"/>
       <use x="126.164062" xlink:href="#DejaVuSans-115"/>
       <use x="178.263672" xlink:href="#DejaVuSans-97"/>
       <use x="239.542969" xlink:href="#DejaVuSans-32"/>
       <use x="271.330078" xlink:href="#DejaVuSans-119"/>
       <use x="353.117188" xlink:href="#DejaVuSans-104"/>
       <use x="416.496094" xlink:href="#DejaVuSans-101"/>
       <use x="478.019531" xlink:href="#DejaVuSans-97"/>
       <use x="539.298828" xlink:href="#DejaVuSans-116"/>
      </g>
     </g>
    </g>
    <g id="xtick_27">
     <g id="text_27">
      <!-- Rosa wheat -->
      <g transform="translate(363.225565 427.271563)rotate(-90)scale(0.06 -0.06)">
       <use xlink:href="#DejaVuSans-82"/>
       <use x="64.982422" xlink:href="#DejaVuSans-111"/>
       <use x="126.164062" xlink:href="#DejaVuSans-115"/>
       <use x="178.263672" xlink:href="#DejaVuSans-97"/>
       <use x="239.542969" xlink:href="#DejaVuSans-32"/>
       <use x="271.330078" xlink:href="#DejaVuSans-119"/>
       <use x="353.117188" xlink:href="#DejaVuSans-104"/>
       <use x="416.496094" xlink:href="#DejaVuSans-101"/>
       <use x="478.019531" xlink:href="#DejaVuSans-97"/>
       <use x="539.298828" xlink:href="#DejaVuSans-116"/>
      </g>
     </g>
    </g>
    <g id="xtick_28">
     <g id="text_28">
      <!-- Rosa wheat -->
      <g transform="translate(375.717827 427.271563)rotate(-90)scale(0.06 -0.06)">
       <use xlink:href="#DejaVuSans-82"/>
       <use x="64.982422" xlink:href="#DejaVuSans-111"/>
       <use x="126.164062" xlink:href="#DejaVuSans-115"/>
       <use x="178.263672" xlink:href="#DejaVuSans-97"/>
       <use x="239.542969" xlink:href="#DejaVuSans-32"/>
       <use x="271.330078" xlink:href="#DejaVuSans-119"/>
       <use x="353.117188" xlink:href="#DejaVuSans-104"/>
       <use x="416.496094" xlink:href="#DejaVuSans-101"/>
       <use x="478.019531" xlink:href="#DejaVuSans-97"/>
       <use x="539.298828" xlink:href="#DejaVuSans-116"/>
      </g>
     </g>
    </g>
    <g id="xtick_29">
     <g id="text_29">
      <!-- Rosa wheat -->
      <g transform="translate(388.210089 427.271563)rotate(-90)scale(0.06 -0.06)">
       <use xlink:href="#DejaVuSans-82"/>
       <use x="64.982422" xlink:href="#DejaVuSans-111"/>
       <use x="126.164062" xlink:href="#DejaVuSans-115"/>
       <use x="178.263672" xlink:href="#DejaVuSans-97"/>
       <use x="239.542969" xlink:href="#DejaVuSans-32"/>
       <use x="271.330078" xlink:href="#DejaVuSans-119"/>
       <use x="353.117188" xlink:href="#DejaVuSans-104"/>
       <use x="416.496094" xlink:href="#DejaVuSans-101"/>
       <use x="478.019531" xlink:href="#DejaVuSans-97"/>
       <use x="539.298828" xlink:href="#DejaVuSans-116"/>
      </g>
     </g>
    </g>
    <g id="xtick_30">
     <g id="text_30">
      <!-- Rosa wheat -->
      <g transform="translate(400.702351 427.271563)rotate(-90)scale(0.06 -0.06)">
       <use xlink:href="#DejaVuSans-82"/>
       <use x="64.982422" xlink:href="#DejaVuSans-111"/>
       <use x="126.164062" xlink:href="#DejaVuSans-115"/>
       <use x="178.263672" xlink:href="#DejaVuSans-97"/>
       <use x="239.542969" xlink:href="#DejaVuSans-32"/>
       <use x="271.330078" xlink:href="#DejaVuSans-119"/>
       <use x="353.117188" xlink:href="#DejaVuSans-104"/>
       <use x="416.496094" xlink:href="#DejaVuSans-101"/>
       <use x="478.019531" xlink:href="#DejaVuSans-97"/>
       <use x="539.298828" xlink:href="#DejaVuSans-116"/>
      </g>
     </g>
    </g>
    <g id="xtick_31">
     <g id="text_31">
      <!-- Rosa wheat -->
      <g transform="translate(413.194613 427.271563)rotate(-90)scale(0.06 -0.06)">
       <use xlink:href="#DejaVuSans-82"/>
       <use x="64.982422" xlink:href="#DejaVuSans-111"/>
       <use x="126.164062" xlink:href="#DejaVuSans-115"/>
       <use x="178.263672" xlink:href="#DejaVuSans-97"/>
       <use x="239.542969" xlink:href="#DejaVuSans-32"/>
       <use x="271.330078" xlink:href="#DejaVuSans-119"/>
       <use x="353.117188" xlink:href="#DejaVuSans-104"/>
       <use x="416.496094" xlink:href="#DejaVuSans-101"/>
       <use x="478.019531" xlink:href="#DejaVuSans-97"/>
       <use x="539.298828" xlink:href="#DejaVuSans-116"/>
      </g>
     </g>
    </g>
    <g id="xtick_32">
     <g id="text_32">
      <!-- Kama wheat -->
      <g transform="translate(425.686875 429.926562)rotate(-90)scale(0.06 -0.06)">
       <use xlink:href="#DejaVuSans-75"/>
       <use x="63.826172" xlink:href="#DejaVuSans-97"/>
       <use x="125.105469" xlink:href="#DejaVuSans-109"/>
       <use x="222.517578" xlink:href="#DejaVuSans-97"/>
       <use x="283.796875" xlink:href="#DejaVuSans-32"/>
       <use x="315.583984" xlink:href="#DejaVuSans-119"/>
       <use x="397.371094" xlink:href="#DejaVuSans-104"/>
       <use x="460.75" xlink:href="#DejaVuSans-101"/>
       <use x="522.273438" xlink:href="#DejaVuSans-97"/>
       <use x="583.552734" xlink:href="#DejaVuSans-116"/>
      </g>
     </g>
    </g>
    <g id="xtick_33">
     <g id="text_33">
      <!-- Kama wheat -->
      <g transform="translate(438.179137 429.926562)rotate(-90)scale(0.06 -0.06)">
       <use xlink:href="#DejaVuSans-75"/>
       <use x="63.826172" xlink:href="#DejaVuSans-97"/>
       <use x="125.105469" xlink:href="#DejaVuSans-109"/>
       <use x="222.517578" xlink:href="#DejaVuSans-97"/>
       <use x="283.796875" xlink:href="#DejaVuSans-32"/>
       <use x="315.583984" xlink:href="#DejaVuSans-119"/>
       <use x="397.371094" xlink:href="#DejaVuSans-104"/>
       <use x="460.75" xlink:href="#DejaVuSans-101"/>
       <use x="522.273438" xlink:href="#DejaVuSans-97"/>
       <use x="583.552734" xlink:href="#DejaVuSans-116"/>
      </g>
     </g>
    </g>
    <g id="xtick_34">
     <g id="text_34">
      <!-- Kama wheat -->
      <g transform="translate(450.671399 429.926562)rotate(-90)scale(0.06 -0.06)">
       <use xlink:href="#DejaVuSans-75"/>
       <use x="63.826172" xlink:href="#DejaVuSans-97"/>
       <use x="125.105469" xlink:href="#DejaVuSans-109"/>
       <use x="222.517578" xlink:href="#DejaVuSans-97"/>
       <use x="283.796875" xlink:href="#DejaVuSans-32"/>
       <use x="315.583984" xlink:href="#DejaVuSans-119"/>
       <use x="397.371094" xlink:href="#DejaVuSans-104"/>
       <use x="460.75" xlink:href="#DejaVuSans-101"/>
       <use x="522.273438" xlink:href="#DejaVuSans-97"/>
       <use x="583.552734" xlink:href="#DejaVuSans-116"/>
      </g>
     </g>
    </g>
    <g id="xtick_35">
     <g id="text_35">
      <!-- Kama wheat -->
      <g transform="translate(463.163661 429.926562)rotate(-90)scale(0.06 -0.06)">
       <use xlink:href="#DejaVuSans-75"/>
       <use x="63.826172" xlink:href="#DejaVuSans-97"/>
       <use x="125.105469" xlink:href="#DejaVuSans-109"/>
       <use x="222.517578" xlink:href="#DejaVuSans-97"/>
       <use x="283.796875" xlink:href="#DejaVuSans-32"/>
       <use x="315.583984" xlink:href="#DejaVuSans-119"/>
       <use x="397.371094" xlink:href="#DejaVuSans-104"/>
       <use x="460.75" xlink:href="#DejaVuSans-101"/>
       <use x="522.273438" xlink:href="#DejaVuSans-97"/>
       <use x="583.552734" xlink:href="#DejaVuSans-116"/>
      </g>
     </g>
    </g>
    <g id="xtick_36">
     <g id="text_36">
      <!-- Kama wheat -->
      <g transform="translate(475.655923 429.926562)rotate(-90)scale(0.06 -0.06)">
       <use xlink:href="#DejaVuSans-75"/>
       <use x="63.826172" xlink:href="#DejaVuSans-97"/>
       <use x="125.105469" xlink:href="#DejaVuSans-109"/>
       <use x="222.517578" xlink:href="#DejaVuSans-97"/>
       <use x="283.796875" xlink:href="#DejaVuSans-32"/>
       <use x="315.583984" xlink:href="#DejaVuSans-119"/>
       <use x="397.371094" xlink:href="#DejaVuSans-104"/>
       <use x="460.75" xlink:href="#DejaVuSans-101"/>
       <use x="522.273438" xlink:href="#DejaVuSans-97"/>
       <use x="583.552734" xlink:href="#DejaVuSans-116"/>
      </g>
     </g>
    </g>
    <g id="xtick_37">
     <g id="text_37">
      <!-- Kama wheat -->
      <g transform="translate(488.148185 429.926562)rotate(-90)scale(0.06 -0.06)">
       <use xlink:href="#DejaVuSans-75"/>
       <use x="63.826172" xlink:href="#DejaVuSans-97"/>
       <use x="125.105469" xlink:href="#DejaVuSans-109"/>
       <use x="222.517578" xlink:href="#DejaVuSans-97"/>
       <use x="283.796875" xlink:href="#DejaVuSans-32"/>
       <use x="315.583984" xlink:href="#DejaVuSans-119"/>
       <use x="397.371094" xlink:href="#DejaVuSans-104"/>
       <use x="460.75" xlink:href="#DejaVuSans-101"/>
       <use x="522.273438" xlink:href="#DejaVuSans-97"/>
       <use x="583.552734" xlink:href="#DejaVuSans-116"/>
      </g>
     </g>
    </g>
    <g id="xtick_38">
     <g id="text_38">
      <!-- Kama wheat -->
      <g transform="translate(500.640446 429.926562)rotate(-90)scale(0.06 -0.06)">
       <use xlink:href="#DejaVuSans-75"/>
       <use x="63.826172" xlink:href="#DejaVuSans-97"/>
       <use x="125.105469" xlink:href="#DejaVuSans-109"/>
       <use x="222.517578" xlink:href="#DejaVuSans-97"/>
       <use x="283.796875" xlink:href="#DejaVuSans-32"/>
       <use x="315.583984" xlink:href="#DejaVuSans-119"/>
       <use x="397.371094" xlink:href="#DejaVuSans-104"/>
       <use x="460.75" xlink:href="#DejaVuSans-101"/>
       <use x="522.273438" xlink:href="#DejaVuSans-97"/>
       <use x="583.552734" xlink:href="#DejaVuSans-116"/>
      </g>
     </g>
    </g>
    <g id="xtick_39">
     <g id="text_39">
      <!-- Kama wheat -->
      <g transform="translate(513.132708 429.926562)rotate(-90)scale(0.06 -0.06)">
       <use xlink:href="#DejaVuSans-75"/>
       <use x="63.826172" xlink:href="#DejaVuSans-97"/>
       <use x="125.105469" xlink:href="#DejaVuSans-109"/>
       <use x="222.517578" xlink:href="#DejaVuSans-97"/>
       <use x="283.796875" xlink:href="#DejaVuSans-32"/>
       <use x="315.583984" xlink:href="#DejaVuSans-119"/>
       <use x="397.371094" xlink:href="#DejaVuSans-104"/>
       <use x="460.75" xlink:href="#DejaVuSans-101"/>
       <use x="522.273438" xlink:href="#DejaVuSans-97"/>
       <use x="583.552734" xlink:href="#DejaVuSans-116"/>
      </g>
     </g>
    </g>
    <g id="xtick_40">
     <g id="text_40">
      <!-- Kama wheat -->
      <g transform="translate(525.62497 429.926562)rotate(-90)scale(0.06 -0.06)">
       <use xlink:href="#DejaVuSans-75"/>
       <use x="63.826172" xlink:href="#DejaVuSans-97"/>
       <use x="125.105469" xlink:href="#DejaVuSans-109"/>
       <use x="222.517578" xlink:href="#DejaVuSans-97"/>
       <use x="283.796875" xlink:href="#DejaVuSans-32"/>
       <use x="315.583984" xlink:href="#DejaVuSans-119"/>
       <use x="397.371094" xlink:href="#DejaVuSans-104"/>
       <use x="460.75" xlink:href="#DejaVuSans-101"/>
       <use x="522.273438" xlink:href="#DejaVuSans-97"/>
       <use x="583.552734" xlink:href="#DejaVuSans-116"/>
      </g>
     </g>
    </g>
    <g id="xtick_41">
     <g id="text_41">
      <!-- Kama wheat -->
      <g transform="translate(538.117232 429.926562)rotate(-90)scale(0.06 -0.06)">
       <use xlink:href="#DejaVuSans-75"/>
       <use x="63.826172" xlink:href="#DejaVuSans-97"/>
       <use x="125.105469" xlink:href="#DejaVuSans-109"/>
       <use x="222.517578" xlink:href="#DejaVuSans-97"/>
       <use x="283.796875" xlink:href="#DejaVuSans-32"/>
       <use x="315.583984" xlink:href="#DejaVuSans-119"/>
       <use x="397.371094" xlink:href="#DejaVuSans-104"/>
       <use x="460.75" xlink:href="#DejaVuSans-101"/>
       <use x="522.273438" xlink:href="#DejaVuSans-97"/>
       <use x="583.552734" xlink:href="#DejaVuSans-116"/>
      </g>
     </g>
    </g>
    <g id="xtick_42">
     <g id="text_42">
      <!-- Kama wheat -->
      <g transform="translate(550.609494 429.926562)rotate(-90)scale(0.06 -0.06)">
       <use xlink:href="#DejaVuSans-75"/>
       <use x="63.826172" xlink:href="#DejaVuSans-97"/>
       <use x="125.105469" xlink:href="#DejaVuSans-109"/>
       <use x="222.517578" xlink:href="#DejaVuSans-97"/>
       <use x="283.796875" xlink:href="#DejaVuSans-32"/>
       <use x="315.583984" xlink:href="#DejaVuSans-119"/>
       <use x="397.371094" xlink:href="#DejaVuSans-104"/>
       <use x="460.75" xlink:href="#DejaVuSans-101"/>
       <use x="522.273438" xlink:href="#DejaVuSans-97"/>
       <use x="583.552734" xlink:href="#DejaVuSans-116"/>
      </g>
     </g>
    </g>
   </g>
   <g id="matplotlib.axis_2">
    <g id="ytick_1">
     <g id="line2d_1">
      <defs>
       <path d="M 0 0 
L -3.5 0 
" id="meb5497cddb" style="stroke:#000000;stroke-width:0.8;"/>
      </defs>
      <g>
       <use style="stroke:#000000;stroke-width:0.8;" x="30.525" xlink:href="#meb5497cddb" y="385.561562"/>
      </g>
     </g>
     <g id="text_43">
      <!-- 0 -->
      <g transform="translate(17.1625 389.360781)scale(0.1 -0.1)">
       <defs>
        <path d="M 31.78125 66.40625 
Q 24.171875 66.40625 20.328125 58.90625 
Q 16.5 51.421875 16.5 36.375 
Q 16.5 21.390625 20.328125 13.890625 
Q 24.171875 6.390625 31.78125 6.390625 
Q 39.453125 6.390625 43.28125 13.890625 
Q 47.125 21.390625 47.125 36.375 
Q 47.125 51.421875 43.28125 58.90625 
Q 39.453125 66.40625 31.78125 66.40625 
z
M 31.78125 74.21875 
Q 44.046875 74.21875 50.515625 64.515625 
Q 56.984375 54.828125 56.984375 36.375 
Q 56.984375 17.96875 50.515625 8.265625 
Q 44.046875 -1.421875 31.78125 -1.421875 
Q 19.53125 -1.421875 13.0625 8.265625 
Q 6.59375 17.96875 6.59375 36.375 
Q 6.59375 54.828125 13.0625 64.515625 
Q 19.53125 74.21875 31.78125 74.21875 
z
" id="DejaVuSans-48"/>
       </defs>
       <use xlink:href="#DejaVuSans-48"/>
      </g>
     </g>
    </g>
    <g id="ytick_2">
     <g id="line2d_2">
      <g>
       <use style="stroke:#000000;stroke-width:0.8;" x="30.525" xlink:href="#meb5497cddb" y="311.417199"/>
      </g>
     </g>
     <g id="text_44">
      <!-- 2 -->
      <g transform="translate(17.1625 315.216418)scale(0.1 -0.1)">
       <defs>
        <path d="M 19.1875 8.296875 
L 53.609375 8.296875 
L 53.609375 0 
L 7.328125 0 
L 7.328125 8.296875 
Q 12.9375 14.109375 22.625 23.890625 
Q 32.328125 33.6875 34.8125 36.53125 
Q 39.546875 41.84375 41.421875 45.53125 
Q 43.3125 49.21875 43.3125 52.78125 
Q 43.3125 58.59375 39.234375 62.25 
Q 35.15625 65.921875 28.609375 65.921875 
Q 23.96875 65.921875 18.8125 64.3125 
Q 13.671875 62.703125 7.8125 59.421875 
L 7.8125 69.390625 
Q 13.765625 71.78125 18.9375 73 
Q 24.125 74.21875 28.421875 74.21875 
Q 39.75 74.21875 46.484375 68.546875 
Q 53.21875 62.890625 53.21875 53.421875 
Q 53.21875 48.921875 51.53125 44.890625 
Q 49.859375 40.875 45.40625 35.40625 
Q 44.1875 33.984375 37.640625 27.21875 
Q 31.109375 20.453125 19.1875 8.296875 
z
" id="DejaVuSans-50"/>
       </defs>
       <use xlink:href="#DejaVuSans-50"/>
      </g>
     </g>
    </g>
    <g id="ytick_3">
     <g id="line2d_3">
      <g>
       <use style="stroke:#000000;stroke-width:0.8;" x="30.525" xlink:href="#meb5497cddb" y="237.272835"/>
      </g>
     </g>
     <g id="text_45">
      <!-- 4 -->
      <g transform="translate(17.1625 241.072054)scale(0.1 -0.1)">
       <defs>
        <path d="M 37.796875 64.3125 
L 12.890625 25.390625 
L 37.796875 25.390625 
z
M 35.203125 72.90625 
L 47.609375 72.90625 
L 47.609375 25.390625 
L 58.015625 25.390625 
L 58.015625 17.1875 
L 47.609375 17.1875 
L 47.609375 0 
L 37.796875 0 
L 37.796875 17.1875 
L 4.890625 17.1875 
L 4.890625 26.703125 
z
" id="DejaVuSans-52"/>
       </defs>
       <use xlink:href="#DejaVuSans-52"/>
      </g>
     </g>
    </g>
    <g id="ytick_4">
     <g id="line2d_4">
      <g>
       <use style="stroke:#000000;stroke-width:0.8;" x="30.525" xlink:href="#meb5497cddb" y="163.128472"/>
      </g>
     </g>
     <g id="text_46">
      <!-- 6 -->
      <g transform="translate(17.1625 166.92769)scale(0.1 -0.1)">
       <defs>
        <path d="M 33.015625 40.375 
Q 26.375 40.375 22.484375 35.828125 
Q 18.609375 31.296875 18.609375 23.390625 
Q 18.609375 15.53125 22.484375 10.953125 
Q 26.375 6.390625 33.015625 6.390625 
Q 39.65625 6.390625 43.53125 10.953125 
Q 47.40625 15.53125 47.40625 23.390625 
Q 47.40625 31.296875 43.53125 35.828125 
Q 39.65625 40.375 33.015625 40.375 
z
M 52.59375 71.296875 
L 52.59375 62.3125 
Q 48.875 64.0625 45.09375 64.984375 
Q 41.3125 65.921875 37.59375 65.921875 
Q 27.828125 65.921875 22.671875 59.328125 
Q 17.53125 52.734375 16.796875 39.40625 
Q 19.671875 43.65625 24.015625 45.921875 
Q 28.375 48.1875 33.59375 48.1875 
Q 44.578125 48.1875 50.953125 41.515625 
Q 57.328125 34.859375 57.328125 23.390625 
Q 57.328125 12.15625 50.6875 5.359375 
Q 44.046875 -1.421875 33.015625 -1.421875 
Q 20.359375 -1.421875 13.671875 8.265625 
Q 6.984375 17.96875 6.984375 36.375 
Q 6.984375 53.65625 15.1875 63.9375 
Q 23.390625 74.21875 37.203125 74.21875 
Q 40.921875 74.21875 44.703125 73.484375 
Q 48.484375 72.75 52.59375 71.296875 
z
" id="DejaVuSans-54"/>
       </defs>
       <use xlink:href="#DejaVuSans-54"/>
      </g>
     </g>
    </g>
    <g id="ytick_5">
     <g id="line2d_5">
      <g>
       <use style="stroke:#000000;stroke-width:0.8;" x="30.525" xlink:href="#meb5497cddb" y="88.984108"/>
      </g>
     </g>
     <g id="text_47">
      <!-- 8 -->
      <g transform="translate(17.1625 92.783327)scale(0.1 -0.1)">
       <defs>
        <path d="M 31.78125 34.625 
Q 24.75 34.625 20.71875 30.859375 
Q 16.703125 27.09375 16.703125 20.515625 
Q 16.703125 13.921875 20.71875 10.15625 
Q 24.75 6.390625 31.78125 6.390625 
Q 38.8125 6.390625 42.859375 10.171875 
Q 46.921875 13.96875 46.921875 20.515625 
Q 46.921875 27.09375 42.890625 30.859375 
Q 38.875 34.625 31.78125 34.625 
z
M 21.921875 38.8125 
Q 15.578125 40.375 12.03125 44.71875 
Q 8.5 49.078125 8.5 55.328125 
Q 8.5 64.0625 14.71875 69.140625 
Q 20.953125 74.21875 31.78125 74.21875 
Q 42.671875 74.21875 48.875 69.140625 
Q 55.078125 64.0625 55.078125 55.328125 
Q 55.078125 49.078125 51.53125 44.71875 
Q 48 40.375 41.703125 38.8125 
Q 48.828125 37.15625 52.796875 32.3125 
Q 56.78125 27.484375 56.78125 20.515625 
Q 56.78125 9.90625 50.3125 4.234375 
Q 43.84375 -1.421875 31.78125 -1.421875 
Q 19.734375 -1.421875 13.25 4.234375 
Q 6.78125 9.90625 6.78125 20.515625 
Q 6.78125 27.484375 10.78125 32.3125 
Q 14.796875 37.15625 21.921875 38.8125 
z
M 18.3125 54.390625 
Q 18.3125 48.734375 21.84375 45.5625 
Q 25.390625 42.390625 31.78125 42.390625 
Q 38.140625 42.390625 41.71875 45.5625 
Q 45.3125 48.734375 45.3125 54.390625 
Q 45.3125 60.0625 41.71875 63.234375 
Q 38.140625 66.40625 31.78125 66.40625 
Q 25.390625 66.40625 21.84375 63.234375 
Q 18.3125 60.0625 18.3125 54.390625 
z
" id="DejaVuSans-56"/>
       </defs>
       <use xlink:href="#DejaVuSans-56"/>
      </g>
     </g>
    </g>
    <g id="ytick_6">
     <g id="line2d_6">
      <g>
       <use style="stroke:#000000;stroke-width:0.8;" x="30.525" xlink:href="#meb5497cddb" y="14.839744"/>
      </g>
     </g>
     <g id="text_48">
      <!-- 10 -->
      <g transform="translate(10.8 18.638963)scale(0.1 -0.1)">
       <defs>
        <path d="M 12.40625 8.296875 
L 28.515625 8.296875 
L 28.515625 63.921875 
L 10.984375 60.40625 
L 10.984375 69.390625 
L 28.421875 72.90625 
L 38.28125 72.90625 
L 38.28125 8.296875 
L 54.390625 8.296875 
L 54.390625 0 
L 12.40625 0 
z
" id="DejaVuSans-49"/>
       </defs>
       <use xlink:href="#DejaVuSans-49"/>
       <use x="63.623047" xlink:href="#DejaVuSans-48"/>
      </g>
     </g>
    </g>
   </g>
   <g id="LineCollection_1">
    <path clip-path="url(#pf99d4d9a51)" d="M 49.263393 385.561562 
L 49.263393 375.49168 
L 61.755655 375.49168 
L 61.755655 385.561562 
" style="fill:none;stroke:#ff7f0e;stroke-width:1.5;"/>
    <path clip-path="url(#pf99d4d9a51)" d="M 36.771131 385.561562 
L 36.771131 357.556755 
L 55.509524 357.556755 
L 55.509524 375.49168 
" style="fill:none;stroke:#ff7f0e;stroke-width:1.5;"/>
    <path clip-path="url(#pf99d4d9a51)" d="M 86.740179 385.561562 
L 86.740179 360.219255 
L 99.23244 360.219255 
L 99.23244 385.561562 
" style="fill:none;stroke:#ff7f0e;stroke-width:1.5;"/>
    <path clip-path="url(#pf99d4d9a51)" d="M 74.247917 385.561562 
L 74.247917 334.516695 
L 92.98631 334.516695 
L 92.98631 360.219255 
" style="fill:none;stroke:#ff7f0e;stroke-width:1.5;"/>
    <path clip-path="url(#pf99d4d9a51)" d="M 46.140327 357.556755 
L 46.140327 323.830005 
L 83.617113 323.830005 
L 83.617113 334.516695 
" style="fill:none;stroke:#ff7f0e;stroke-width:1.5;"/>
    <path clip-path="url(#pf99d4d9a51)" d="M 124.216964 385.561562 
L 124.216964 356.24981 
L 136.709226 356.24981 
L 136.709226 385.561562 
" style="fill:none;stroke:#ff7f0e;stroke-width:1.5;"/>
    <path clip-path="url(#pf99d4d9a51)" d="M 111.724702 385.561562 
L 111.724702 308.088103 
L 130.463095 308.088103 
L 130.463095 356.24981 
" style="fill:none;stroke:#ff7f0e;stroke-width:1.5;"/>
    <path clip-path="url(#pf99d4d9a51)" d="M 64.87872 323.830005 
L 64.87872 269.359396 
L 121.093899 269.359396 
L 121.093899 308.088103 
" style="fill:none;stroke:#ff7f0e;stroke-width:1.5;"/>
    <path clip-path="url(#pf99d4d9a51)" d="M 161.69375 385.561562 
L 161.69375 343.397985 
L 174.186012 343.397985 
L 174.186012 385.561562 
" style="fill:none;stroke:#ff7f0e;stroke-width:1.5;"/>
    <path clip-path="url(#pf99d4d9a51)" d="M 149.201488 385.561562 
L 149.201488 337.858437 
L 167.939881 337.858437 
L 167.939881 343.397985 
" style="fill:none;stroke:#ff7f0e;stroke-width:1.5;"/>
    <path clip-path="url(#pf99d4d9a51)" d="M 186.678274 385.561562 
L 186.678274 357.338667 
L 199.170536 357.338667 
L 199.170536 385.561562 
" style="fill:none;stroke:#ff7f0e;stroke-width:1.5;"/>
    <path clip-path="url(#pf99d4d9a51)" d="M 224.15506 385.561562 
L 224.15506 372.713335 
L 236.647321 372.713335 
L 236.647321 385.561562 
" style="fill:none;stroke:#ff7f0e;stroke-width:1.5;"/>
    <path clip-path="url(#pf99d4d9a51)" d="M 211.662798 385.561562 
L 211.662798 348.876185 
L 230.40119 348.876185 
L 230.40119 372.713335 
" style="fill:none;stroke:#ff7f0e;stroke-width:1.5;"/>
    <path clip-path="url(#pf99d4d9a51)" d="M 192.924405 357.338667 
L 192.924405 306.454888 
L 221.031994 306.454888 
L 221.031994 348.876185 
" style="fill:none;stroke:#ff7f0e;stroke-width:1.5;"/>
    <path clip-path="url(#pf99d4d9a51)" d="M 158.570685 337.858437 
L 158.570685 264.800913 
L 206.978199 264.800913 
L 206.978199 306.454888 
" style="fill:none;stroke:#ff7f0e;stroke-width:1.5;"/>
    <path clip-path="url(#pf99d4d9a51)" d="M 92.98631 269.359396 
L 92.98631 183.225557 
L 182.774442 183.225557 
L 182.774442 264.800913 
" style="fill:none;stroke:#ff7f0e;stroke-width:1.5;"/>
   </g>
   <g id="LineCollection_2">
    <path clip-path="url(#pf99d4d9a51)" d="M 261.631845 385.561562 
L 261.631845 361.669285 
L 274.124107 361.669285 
L 274.124107 385.561562 
" style="fill:none;stroke:#2ca02c;stroke-width:1.5;"/>
    <path clip-path="url(#pf99d4d9a51)" d="M 249.139583 385.561562 
L 249.139583 346.305178 
L 267.877976 346.305178 
L 267.877976 361.669285 
" style="fill:none;stroke:#2ca02c;stroke-width:1.5;"/>
    <path clip-path="url(#pf99d4d9a51)" d="M 311.600893 385.561562 
L 311.600893 371.134197 
L 324.093155 371.134197 
L 324.093155 385.561562 
" style="fill:none;stroke:#2ca02c;stroke-width:1.5;"/>
    <path clip-path="url(#pf99d4d9a51)" d="M 299.108631 385.561562 
L 299.108631 352.561692 
L 317.847024 352.561692 
L 317.847024 371.134197 
" style="fill:none;stroke:#2ca02c;stroke-width:1.5;"/>
    <path clip-path="url(#pf99d4d9a51)" d="M 286.616369 385.561562 
L 286.616369 320.968926 
L 308.477827 320.968926 
L 308.477827 352.561692 
" style="fill:none;stroke:#2ca02c;stroke-width:1.5;"/>
    <path clip-path="url(#pf99d4d9a51)" d="M 258.50878 346.305178 
L 258.50878 299.608874 
L 297.547098 299.608874 
L 297.547098 320.968926 
" style="fill:none;stroke:#2ca02c;stroke-width:1.5;"/>
    <path clip-path="url(#pf99d4d9a51)" d="M 336.585417 385.561562 
L 336.585417 344.210102 
L 349.077679 344.210102 
L 349.077679 385.561562 
" style="fill:none;stroke:#2ca02c;stroke-width:1.5;"/>
    <path clip-path="url(#pf99d4d9a51)" d="M 374.062202 385.561562 
L 374.062202 373.933599 
L 386.554464 373.933599 
L 386.554464 385.561562 
" style="fill:none;stroke:#2ca02c;stroke-width:1.5;"/>
    <path clip-path="url(#pf99d4d9a51)" d="M 361.56994 385.561562 
L 361.56994 373.384615 
L 380.308333 373.384615 
L 380.308333 373.933599 
" style="fill:none;stroke:#2ca02c;stroke-width:1.5;"/>
    <path clip-path="url(#pf99d4d9a51)" d="M 399.046726 385.561562 
L 399.046726 371.758309 
L 411.538988 371.758309 
L 411.538988 385.561562 
" style="fill:none;stroke:#2ca02c;stroke-width:1.5;"/>
    <path clip-path="url(#pf99d4d9a51)" d="M 370.939137 373.384615 
L 370.939137 342.327832 
L 405.292857 342.327832 
L 405.292857 371.758309 
" style="fill:none;stroke:#2ca02c;stroke-width:1.5;"/>
    <path clip-path="url(#pf99d4d9a51)" d="M 342.831548 344.210102 
L 342.831548 298.928992 
L 388.115997 298.928992 
L 388.115997 342.327832 
" style="fill:none;stroke:#2ca02c;stroke-width:1.5;"/>
    <path clip-path="url(#pf99d4d9a51)" d="M 278.027939 299.608874 
L 278.027939 247.808632 
L 365.473772 247.808632 
L 365.473772 298.928992 
" style="fill:none;stroke:#2ca02c;stroke-width:1.5;"/>
   </g>
   <g id="LineCollection_3">
    <path clip-path="url(#pf99d4d9a51)" d="M 424.03125 385.561562 
L 424.03125 303.19198 
L 436.523512 303.19198 
L 436.523512 385.561562 
" style="fill:none;stroke:#d62728;stroke-width:1.5;"/>
    <path clip-path="url(#pf99d4d9a51)" d="M 449.015774 385.561562 
L 449.015774 360.844924 
L 461.508036 360.844924 
L 461.508036 385.561562 
" style="fill:none;stroke:#d62728;stroke-width:1.5;"/>
    <path clip-path="url(#pf99d4d9a51)" d="M 474.000298 385.561562 
L 474.000298 367.574174 
L 486.49256 367.574174 
L 486.49256 385.561562 
" style="fill:none;stroke:#d62728;stroke-width:1.5;"/>
    <path clip-path="url(#pf99d4d9a51)" d="M 498.984821 385.561562 
L 498.984821 363.236505 
L 511.477083 363.236505 
L 511.477083 385.561562 
" style="fill:none;stroke:#d62728;stroke-width:1.5;"/>
    <path clip-path="url(#pf99d4d9a51)" d="M 480.246429 367.574174 
L 480.246429 328.891125 
L 505.230952 328.891125 
L 505.230952 363.236505 
" style="fill:none;stroke:#d62728;stroke-width:1.5;"/>
    <path clip-path="url(#pf99d4d9a51)" d="M 455.261905 360.844924 
L 455.261905 314.747977 
L 492.73869 314.747977 
L 492.73869 328.891125 
" style="fill:none;stroke:#d62728;stroke-width:1.5;"/>
    <path clip-path="url(#pf99d4d9a51)" d="M 536.461607 385.561562 
L 536.461607 349.943447 
L 548.953869 349.943447 
L 548.953869 385.561562 
" style="fill:none;stroke:#d62728;stroke-width:1.5;"/>
    <path clip-path="url(#pf99d4d9a51)" d="M 523.969345 385.561562 
L 523.969345 314.476012 
L 542.707738 314.476012 
L 542.707738 349.943447 
" style="fill:none;stroke:#d62728;stroke-width:1.5;"/>
    <path clip-path="url(#pf99d4d9a51)" d="M 474.000298 314.747977 
L 474.000298 282.953535 
L 533.338542 282.953535 
L 533.338542 314.476012 
" style="fill:none;stroke:#d62728;stroke-width:1.5;"/>
    <path clip-path="url(#pf99d4d9a51)" d="M 430.277381 303.19198 
L 430.277381 212.020382 
L 503.66942 212.020382 
L 503.66942 282.953535 
" style="fill:none;stroke:#d62728;stroke-width:1.5;"/>
   </g>
   <g id="LineCollection_4">
    <path clip-path="url(#pf99d4d9a51)" d="M 321.750856 247.808632 
L 321.750856 135.4695 
L 466.9734 135.4695 
L 466.9734 212.020382 
" style="fill:none;stroke:#1f77b4;stroke-width:1.5;"/>
    <path clip-path="url(#pf99d4d9a51)" d="M 137.880376 183.225557 
L 137.880376 29.212541 
L 394.362128 29.212541 
L 394.362128 135.4695 
" style="fill:none;stroke:#1f77b4;stroke-width:1.5;"/>
   </g>
   <g id="patch_3">
    <path d="M 30.525 385.561562 
L 30.525 11.39509 
" style="fill:none;stroke:#000000;stroke-linecap:square;stroke-linejoin:miter;stroke-width:0.8;"/>
   </g>
   <g id="patch_4">
    <path d="M 555.2 385.561562 
L 555.2 11.39509 
" style="fill:none;stroke:#000000;stroke-linecap:square;stroke-linejoin:miter;stroke-width:0.8;"/>
   </g>
   <g id="patch_5">
    <path d="M 30.525 385.561562 
L 555.2 385.561562 
" style="fill:none;stroke:#000000;stroke-linecap:square;stroke-linejoin:miter;stroke-width:0.8;"/>
   </g>
   <g id="patch_6">
    <path d="M 30.525 11.39509 
L 555.2 11.39509 
" style="fill:none;stroke:#000000;stroke-linecap:square;stroke-linejoin:miter;stroke-width:0.8;"/>
   </g>
  </g>
 </g>
 <defs>
  <clipPath id="pf99d4d9a51">
   <rect height="374.166472" width="524.675" x="30.525" y="11.39509"/>
  </clipPath>
 </defs>
</svg>
